o arc-effect-2026-07-20T17-12-37
g arc-effect-2026-07-20T17-12-37
v -1.844778060913086 -0.6603020429611206 0
v -1.844948172569275 -0.6603289842605591 0.00023999999393709004
v -1.8451182842254639 -0.6603558659553528 2.939152369690196e-20
v -1.7470529079437256 -0.13811399042606354 0
v -1.7995944023132324 -0.1311967819929123 0.06211657077074051
v -1.8521358966827393 -0.12427955865859985 7.607086266824501e-18
v -1.491725206375122 0.29604095220565796 0
v -1.599167823791504 0.34387755393981934 0.11999999731779099
v -1.7066105604171753 0.3917141258716583 1.469576190014977e-17
v -1.1394436359405518 0.6050589680671692 0
v -1.279985785484314 0.7250933051109314 0.16970562934875488
v -1.4205279350280762 0.8451276421546936 2.0782945977619322e-17
v -0.7519403696060181 0.7897687554359436 0
v -0.8846951127052307 0.9941931962966919 0.20784609019756317
v -1.0174498558044434 1.1986175775527954 2.545380494049598e-17
v -0.3692222833633423 0.8783556818962097 0
v -0.44989821314811707 1.1507130861282349 0.2318221926689148
v -0.5305741429328918 1.4230704307556152 2.8390029762901986e-17
v 0 0.9032414555549622 0
v 0 1.2016206979751587 0.23999999463558197
v 0 1.5 2.939152380029954e-17
v 0.3692222833633423 0.8783556818962097 0
v 0.44989821314811707 1.1507130861282349 0.2318221926689148
v 0.5305741429328918 1.4230704307556152 2.8390029762901986e-17
v 0.7519403696060181 0.7897687554359436 0
v 0.8846951127052307 0.9941931962966919 0.20784609019756317
v 1.0174498558044434 1.1986175775527954 2.545380494049598e-17
v 1.1394436359405518 0.6050589680671692 0
v 1.279985785484314 0.7250933051109314 0.16970562934875488
v 1.4205279350280762 0.8451276421546936 2.0782945977619322e-17
v 1.491725206375122 0.29604095220565796 0
v 1.599167823791504 0.34387755393981934 0.11999999731779099
v 1.7066105604171753 0.3917141258716583 1.469576190014977e-17
v 1.7470529079437256 -0.13811399042606354 0
v 1.7995944023132324 -0.1311967819929123 0.06211657077074051
v 1.8521358966827393 -0.12427955865859985 7.607086266824501e-18
v 1.844778060913086 -0.6603020429611206 0
v 1.844948172569275 -0.6603289842605591 0.00023999999393709004
v 1.8451182842254639 -0.6603558659553528 2.939152369690196e-20
v -1.844948172569275 -0.6603289842605591 -0.00023999999393709004
v -1.7995944023132324 -0.1311967819929123 -0.06211657077074051
v -1.599167823791504 0.34387755393981934 -0.11999999731779099
v -1.279985785484314 0.7250933051109314 -0.16970562934875488
v -0.8846951127052307 0.9941931962966919 -0.20784609019756317
v -0.44989821314811707 1.1507130861282349 -0.2318221926689148
v 0 1.2016206979751587 -0.23999999463558197
v 0.44989821314811707 1.1507130861282349 -0.2318221926689148
v 0.8846951127052307 0.9941931962966919 -0.20784609019756317
v 1.279985785484314 0.7250933051109314 -0.16970562934875488
v 1.599167823791504 0.34387755393981934 -0.11999999731779099
v 1.7995944023132324 -0.1311967819929123 -0.06211657077074051
v 1.844948172569275 -0.6603289842605591 -0.00023999999393709004
vt 1 0
vt 0.5 0
vt 0 0
vt 1 0.08333331346511841
vt 0.5 0.08333331346511841
vt 0 0.08333331346511841
vt 1 0.1666666865348816
vt 0.5 0.1666666865348816
vt 0 0.1666666865348816
vt 1 0.25
vt 0.5 0.25
vt 0 0.25
vt 1 0.3333333730697632
vt 0.5 0.3333333730697632
vt 0 0.3333333730697632
vt 1 0.4166666269302368
vt 0.5 0.4166666269302368
vt 0 0.4166666269302368
vt 1 0.5
vt 0.5 0.5
vt 0 0.5
vt 1 0.5833333134651184
vt 0.5 0.5833333134651184
vt 0 0.5833333134651184
vt 1 0.6666666865348816
vt 0.5 0.6666666865348816
vt 0 0.6666666865348816
vt 1 0.75
vt 0.5 0.75
vt 0 0.75
vt 1 0.8333333134651184
vt 0.5 0.8333333134651184
vt 0 0.8333333134651184
vt 1 0.9166666865348816
vt 0.5 0.9166666865348816
vt 0 0.9166666865348816
vt 1 1
vt 0.5 1
vt 0 1
vt 1 0
vt 0.5 0
vt 0 0
vt 1 0.08333331346511841
vt 0.5 0.08333331346511841
vt 0 0.08333331346511841
vt 1 0.1666666865348816
vt 0.5 0.1666666865348816
vt 0 0.1666666865348816
vt 1 0.25
vt 0.5 0.25
vt 0 0.25
vt 1 0.3333333730697632
vt 0.5 0.3333333730697632
vt 0 0.3333333730697632
vt 1 0.4166666269302368
vt 0.5 0.4166666269302368
vt 0 0.4166666269302368
vt 1 0.5
vt 0.5 0.5
vt 0 0.5
vt 1 0.5833333134651184
vt 0.5 0.5833333134651184
vt 0 0.5833333134651184
vt 1 0.6666666865348816
vt 0.5 0.6666666865348816
vt 0 0.6666666865348816
vt 1 0.75
vt 0.5 0.75
vt 0 0.75
vt 1 0.8333333134651184
vt 0.5 0.8333333134651184
vt 0 0.8333333134651184
vt 1 0.9166666865348816
vt 0.5 0.9166666865348816
vt 0 0.9166666865348816
vt 1 1
vt 0.5 1
vt 0 1
vn 0.8143065434474942 -0.15239383023307668 0.560072293374245
vn 0.7462311492676171 -0.14012374182177156 0.6507721635415861
vn -0.7642024447404395 -0.009958225677652107 0.6448995714016936
vn 0.721328674895606 -0.2659766372879469 0.6394852392278848
vn 0.27873260457802784 -0.23946884854408645 0.9300337659042913
vn -0.7222651968661298 0.15259118651553158 0.6745731355410715
vn 0.5906865766819813 -0.44144917805280587 0.6754346684352411
vn 0.028405609086518704 -0.2078003918271239 0.977758722041853
vn -0.6174388602719689 0.32681221166062874 0.71551592025303
vn 0.42205854845989854 -0.5615696257193764 0.7116924456120937
vn -0.07047020456295039 -0.13465116559525633 0.9883840416926483
vn -0.47875415321096165 0.4629753437407723 0.745954617836346
vn 0.2602442493551039 -0.6181715108419649 0.741712150271897
vn -0.0973680628653949 -0.055269286787403435 0.9937126175468702
vn -0.3201780039170787 0.5577436120836733 0.7657728834240163
vn 0.12734528070621018 -0.6324507089795552 0.7640610448080143
vn -0.07685938333746492 0.009765328656755458 0.9969941191146565
vn -0.15055970844893254 0.612468242534884 0.7760247586759093
vn 0.02140265589242384 -0.6308039639911076 0.7756470107812289
vn -0.029821484675729378 0.04725958683535481 0.9984373843681369
vn 0.024605562819323957 0.6284553385351238 0.7774563998997288
vn -0.08023886269819876 -0.6277373940943412 0.7742786894707522
vn 0.022959029158488763 0.055685124943271075 0.9981843766760486
vn 0.2010381055865084 0.6052762815154885 0.770210557663923
vn -0.20286918991371855 -0.6159720364603074 0.7611980964786326
vn 0.06798595080163224 0.045165336892162976 0.9966634350857945
vn 0.37340954612880334 0.5407008029211464 0.7537956968438522
vn -0.35493746633902823 -0.5724521317078903 0.7391332436657976
vn 0.10702709832931709 0.03130508208175524 0.993763146860992
vn 0.5333231225775843 0.43204198375325803 0.7272593562125168
vn -0.5223723043277964 -0.47348275684106966 0.7091835126717546
vn 0.16670660980945404 0.026470922420133592 0.9856511535589384
vn 0.6676419484351042 0.27940977067618805 0.6900611630431449
vn -0.6733901266117327 -0.309310306264246 0.6714706783028974
vn 0.347021398630272 0.026551881629216637 0.9374812779328652
vn 0.7543677670869354 0.09912850685725232 0.6489243492954497
vn -0.7484934767677297 -0.14001588227161998 0.6481921535685665
vn 0.7619678338327242 -0.010457455125993075 0.6475304331354272
vn 0.8152346375672734 -0.01067198875284855 0.5790324640006081
vn 0.8143065434474942 -0.15239383023307668 -0.560072293374245
vn 0.7462311492676171 -0.14012374182177156 -0.6507721635415861
vn -0.7642024447404395 -0.009958225677652107 -0.6448995714016936
vn 0.721328674895606 -0.2659766372879469 -0.6394852392278848
vn 0.27873260457802784 -0.23946884854408645 -0.9300337659042913
vn -0.7222651968661298 0.15259118651553158 -0.6745731355410715
vn 0.5906865766819813 -0.44144917805280587 -0.6754346684352411
vn 0.028405609086518704 -0.2078003918271239 -0.977758722041853
vn -0.6174388602719689 0.32681221166062874 -0.71551592025303
vn 0.42205854845989854 -0.5615696257193764 -0.7116924456120937
vn -0.07047020456295039 -0.13465116559525633 -0.9883840416926483
vn -0.47875415321096165 0.4629753437407723 -0.745954617836346
vn 0.2602442493551039 -0.6181715108419649 -0.741712150271897
vn -0.0973680628653949 -0.055269286787403435 -0.9937126175468702
vn -0.3201780039170787 0.5577436120836733 -0.7657728834240163
vn 0.12734528070621018 -0.6324507089795552 -0.7640610448080143
vn -0.07685938333746492 0.009765328656755458 -0.9969941191146565
vn -0.15055970844893254 0.612468242534884 -0.7760247586759093
vn 0.02140265589242384 -0.6308039639911076 -0.7756470107812289
vn -0.029821484675729378 0.04725958683535481 -0.9984373843681369
vn 0.024605562819323957 0.6284553385351238 -0.7774563998997288
vn -0.08023886269819876 -0.6277373940943412 -0.7742786894707522
vn 0.022959029158488763 0.055685124943271075 -0.9981843766760486
vn 0.2010381055865084 0.6052762815154885 -0.770210557663923
vn -0.20286918991371855 -0.6159720364603074 -0.7611980964786326
vn 0.06798595080163224 0.045165336892162976 -0.9966634350857945
vn 0.37340954612880334 0.5407008029211464 -0.7537956968438522
vn -0.35493746633902823 -0.5724521317078903 -0.7391332436657976
vn 0.10702709832931709 0.03130508208175524 -0.993763146860992
vn 0.5333231225775843 0.43204198375325803 -0.7272593562125168
vn -0.5223723043277964 -0.47348275684106966 -0.7091835126717546
vn 0.16670660980945404 0.026470922420133592 -0.9856511535589384
vn 0.6676419484351042 0.27940977067618805 -0.6900611630431449
vn -0.6733901266117327 -0.309310306264246 -0.6714706783028974
vn 0.347021398630272 0.026551881629216637 -0.9374812779328652
vn 0.7543677670869354 0.09912850685725232 -0.6489243492954497
vn -0.7484934767677297 -0.14001588227161998 -0.6481921535685665
vn 0.7619678338327242 -0.010457455125993075 -0.6475304331354272
vn 0.8152346375672734 -0.01067198875284855 -0.5790324640006081
f 1/1/1 4/4/4 2/2/2
f 1/40/40 40/41/41 4/43/43
f 2/2/2 4/4/4 5/5/5
f 40/41/41 41/44/44 4/43/43
f 2/2/2 5/5/5 3/3/3
f 40/41/41 3/42/42 41/44/44
f 3/3/3 5/5/5 6/6/6
f 3/42/42 6/45/45 41/44/44
f 4/4/4 7/7/7 5/5/5
f 4/43/43 41/44/44 7/46/46
f 5/5/5 7/7/7 8/8/8
f 41/44/44 42/47/47 7/46/46
f 5/5/5 8/8/8 6/6/6
f 41/44/44 6/45/45 42/47/47
f 6/6/6 8/8/8 9/9/9
f 6/45/45 9/48/48 42/47/47
f 7/7/7 10/10/10 8/8/8
f 7/46/46 42/47/47 10/49/49
f 8/8/8 10/10/10 11/11/11
f 42/47/47 43/50/50 10/49/49
f 8/8/8 11/11/11 9/9/9
f 42/47/47 9/48/48 43/50/50
f 9/9/9 11/11/11 12/12/12
f 9/48/48 12/51/51 43/50/50
f 10/10/10 13/13/13 11/11/11
f 10/49/49 43/50/50 13/52/52
f 11/11/11 13/13/13 14/14/14
f 43/50/50 44/53/53 13/52/52
f 11/11/11 14/14/14 12/12/12
f 43/50/50 12/51/51 44/53/53
f 12/12/12 14/14/14 15/15/15
f 12/51/51 15/54/54 44/53/53
f 13/13/13 16/16/16 14/14/14
f 13/52/52 44/53/53 16/55/55
f 14/14/14 16/16/16 17/17/17
f 44/53/53 45/56/56 16/55/55
f 14/14/14 17/17/17 15/15/15
f 44/53/53 15/54/54 45/56/56
f 15/15/15 17/17/17 18/18/18
f 15/54/54 18/57/57 45/56/56
f 16/16/16 19/19/19 17/17/17
f 16/55/55 45/56/56 19/58/58
f 17/17/17 19/19/19 20/20/20
f 45/56/56 46/59/59 19/58/58
f 17/17/17 20/20/20 18/18/18
f 45/56/56 18/57/57 46/59/59
f 18/18/18 20/20/20 21/21/21
f 18/57/57 21/60/60 46/59/59
f 19/19/19 22/22/22 20/20/20
f 19/58/58 46/59/59 22/61/61
f 20/20/20 22/22/22 23/23/23
f 46/59/59 47/62/62 22/61/61
f 20/20/20 23/23/23 21/21/21
f 46/59/59 21/60/60 47/62/62
f 21/21/21 23/23/23 24/24/24
f 21/60/60 24/63/63 47/62/62
f 22/22/22 25/25/25 23/23/23
f 22/61/61 47/62/62 25/64/64
f 23/23/23 25/25/25 26/26/26
f 47/62/62 48/65/65 25/64/64
f 23/23/23 26/26/26 24/24/24
f 47/62/62 24/63/63 48/65/65
f 24/24/24 26/26/26 27/27/27
f 24/63/63 27/66/66 48/65/65
f 25/25/25 28/28/28 26/26/26
f 25/64/64 48/65/65 28/67/67
f 26/26/26 28/28/28 29/29/29
f 48/65/65 49/68/68 28/67/67
f 26/26/26 29/29/29 27/27/27
f 48/65/65 27/66/66 49/68/68
f 27/27/27 29/29/29 30/30/30
f 27/66/66 30/69/69 49/68/68
f 28/28/28 31/31/31 29/29/29
f 28/67/67 49/68/68 31/70/70
f 29/29/29 31/31/31 32/32/32
f 49/68/68 50/71/71 31/70/70
f 29/29/29 32/32/32 30/30/30
f 49/68/68 30/69/69 50/71/71
f 30/30/30 32/32/32 33/33/33
f 30/69/69 33/72/72 50/71/71
f 31/31/31 34/34/34 32/32/32
f 31/70/70 50/71/71 34/73/73
f 32/32/32 34/34/34 35/35/35
f 50/71/71 51/74/74 34/73/73
f 32/32/32 35/35/35 33/33/33
f 50/71/71 33/72/72 51/74/74
f 33/33/33 35/35/35 36/36/36
f 33/72/72 36/75/75 51/74/74
f 34/34/34 37/37/37 35/35/35
f 34/73/73 51/74/74 37/76/76
f 35/35/35 37/37/37 38/38/38
f 51/74/74 52/77/77 37/76/76
f 35/35/35 38/38/38 36/36/36
f 51/74/74 36/75/75 52/77/77
f 36/36/36 38/38/38 39/39/39
f 36/75/75 39/78/78 52/77/77
