# Blender 5.1.2
# www.blender.org
mtllib 無題.mtl
o cylinderSpiralRibbon-effect-2026-07-20T10-25-28
v 1.080000 -0.100956 -0.016904
v 1.227153 -0.246722 0.028899
v 1.080000 -0.399044 0.016904
v 1.004259 -0.054081 0.397681
v 1.136372 -0.203125 0.470701
v 0.991321 -0.352169 0.428916
v 0.775628 -0.007205 0.751722
v 0.869741 -0.156250 0.869741
v 0.751722 -0.305294 0.775629
v 0.428915 0.039670 0.991321
v 0.470701 -0.109375 1.136372
v 0.397681 -0.258419 1.004259
v 0.016904 0.086545 1.080000
v -0.000000 -0.062500 1.230000
v -0.016904 -0.211544 1.080000
v -0.397681 0.133420 1.004259
v -0.470701 -0.015625 1.136372
v -0.428916 -0.164669 0.991321
v -0.751722 0.180295 0.775628
v -0.869741 0.031250 0.869741
v -0.775628 -0.117794 0.751722
v -0.991321 0.227169 0.428915
v -1.136372 0.078125 0.470701
v -1.004259 -0.070919 0.397681
v -1.004259 0.070919 -0.397681
v -1.136372 -0.078125 -0.470701
v -0.991321 -0.227169 -0.428916
v -0.775628 0.117794 -0.751722
v -0.869741 -0.031250 -0.869741
v -0.751722 -0.180295 -0.775629
v -0.428915 0.164669 -0.991321
v -0.470701 0.015625 -1.136372
v -0.397681 -0.133420 -1.004259
v -0.016904 0.211544 -1.080000
v 0.000000 0.062500 -1.230000
v 0.016904 -0.086545 -1.080000
v 0.397681 0.258419 -1.004259
v 0.470701 0.109375 -1.136372
v 0.428916 -0.039670 -0.991321
v 0.751722 0.305294 -0.775628
v 0.869741 0.156250 -0.869741
v 0.775628 0.007205 -0.751722
v 0.991321 0.352169 -0.428916
v 1.136372 0.203125 -0.470701
v 1.004259 0.054081 -0.397681
v 1.080000 0.399044 -0.016904
v 1.227153 0.246722 -0.028899
v 1.080000 0.100956 0.016904
vn 0.6957 0.7168 0.0461
vn 0.6900 0.7089 0.1462
vn 0.9415 0.3006 0.1526
vn 0.9213 -0.0027 0.3887
vn 0.6811 -0.6992 0.2173
vn 0.5919 -0.7062 0.3885
vn 0.5854 0.7062 0.3981
vn 0.7071 -0.0000 0.7071
vn 0.3981 -0.7062 0.5854
vn 0.3885 0.7062 0.5919
vn 0.3827 -0.0000 0.9239
vn 0.1438 -0.7062 0.6932
vn 0.1324 0.7062 0.6955
vn -0.0000 -0.0000 1.0000
vn -0.1324 -0.7062 0.6955
vn -0.1438 0.7062 0.6932
vn -0.3827 -0.0000 0.9239
vn -0.3885 -0.7062 0.5919
vn -0.3981 0.7062 0.5854
vn -0.7071 -0.0000 0.7071
vn -0.5854 -0.7062 0.3981
vn -0.5919 0.7062 0.3885
vn -0.9238 -0.0000 0.3828
vn -0.6932 -0.7062 0.1439
vn -0.6932 0.7062 -0.1438
vn -0.5854 0.7062 -0.3981
vn -0.9239 -0.0000 -0.3827
vn -0.7071 -0.0000 -0.7071
vn -0.5919 -0.7062 -0.3885
vn -0.3981 -0.7062 -0.5854
vn -0.3885 0.7062 -0.5919
vn -0.3827 -0.0000 -0.9239
vn -0.1438 -0.7062 -0.6932
vn -0.1324 0.7062 -0.6955
vn -0.0000 -0.0000 -1.0000
vn 0.1324 -0.7062 -0.6955
vn 0.1438 0.7062 -0.6932
vn 0.3827 -0.0000 -0.9239
vn 0.3885 -0.7062 -0.5919
vn 0.3981 0.7062 -0.5854
vn 0.7071 -0.0000 -0.7071
vn 0.5854 -0.7062 -0.3981
vn 0.5919 0.7062 -0.3885
vn 0.9213 0.0027 -0.3887
vn 0.6900 -0.7089 -0.1462
vn 0.6811 0.6992 -0.2173
vn 0.9415 -0.3006 -0.1526
vn 0.6957 -0.7168 -0.0461
vt 1.000000 0.000000
vt 1.000000 0.031250
vt 0.500000 0.000000
vt 0.500000 0.031250
vt 0.000000 0.000000
vt 0.000000 0.031250
vt 1.000000 0.062500
vt 0.500000 0.062500
vt 0.000000 0.062500
vt 1.000000 0.093750
vt 0.500000 0.093750
vt 0.000000 0.093750
vt 1.000000 0.125000
vt 0.500000 0.125000
vt 0.000000 0.125000
vt 1.000000 0.156250
vt 0.500000 0.156250
vt 0.000000 0.156250
vt 1.000000 0.187500
vt 0.500000 0.187500
vt 0.000000 0.187500
vt 1.000000 0.218750
vt 0.500000 0.218750
vt 0.000000 0.218750
vt 1.000000 0.781250
vt 1.000000 0.812500
vt 0.500000 0.781250
vt 0.500000 0.812500
vt 0.000000 0.781250
vt 0.000000 0.812500
vt 1.000000 0.843750
vt 0.500000 0.843750
vt 0.000000 0.843750
vt 1.000000 0.875000
vt 0.500000 0.875000
vt 0.000000 0.875000
vt 1.000000 0.906250
vt 0.500000 0.906250
vt 0.000000 0.906250
vt 1.000000 0.937500
vt 0.500000 0.937500
vt 0.000000 0.937500
vt 1.000000 0.968750
vt 0.500000 0.968750
vt 0.000000 0.968750
vt 1.000000 1.000000
vt 0.500000 1.000000
vt 0.000000 1.000000
s 1
f 1/1/1 4/2/2 2/3/3
f 2/3/3 4/2/2 5/4/4
f 2/3/3 5/4/4 3/5/5
f 3/5/5 5/4/4 6/6/6
f 4/2/2 7/7/7 5/4/4
f 5/4/4 7/7/7 8/8/8
f 5/4/4 8/8/8 6/6/6
f 6/6/6 8/8/8 9/9/9
f 7/7/7 10/10/10 8/8/8
f 8/8/8 10/10/10 11/11/11
f 8/8/8 11/11/11 9/9/9
f 9/9/9 11/11/11 12/12/12
f 10/10/10 13/13/13 11/11/11
f 11/11/11 13/13/13 14/14/14
f 11/11/11 14/14/14 12/12/12
f 12/12/12 14/14/14 15/15/15
f 13/13/13 16/16/16 14/14/14
f 14/14/14 16/16/16 17/17/17
f 14/14/14 17/17/17 15/15/15
f 15/15/15 17/17/17 18/18/18
f 16/16/16 19/19/19 17/17/17
f 17/17/17 19/19/19 20/20/20
f 17/17/17 20/20/20 18/18/18
f 18/18/18 20/20/20 21/21/21
f 19/19/19 22/22/22 20/20/20
f 20/20/20 22/22/22 23/23/23
f 20/20/20 23/23/23 21/21/21
f 21/21/21 23/23/23 24/24/24
f 25/25/25 28/26/26 26/27/27
f 26/27/27 28/26/26 29/28/28
f 26/27/27 29/28/28 27/29/29
f 27/29/29 29/28/28 30/30/30
f 28/26/26 31/31/31 29/28/28
f 29/28/28 31/31/31 32/32/32
f 29/28/28 32/32/32 30/30/30
f 30/30/30 32/32/32 33/33/33
f 31/31/31 34/34/34 32/32/32
f 32/32/32 34/34/34 35/35/35
f 32/32/32 35/35/35 33/33/33
f 33/33/33 35/35/35 36/36/36
f 34/34/34 37/37/37 35/35/35
f 35/35/35 37/37/37 38/38/38
f 35/35/35 38/38/38 36/36/36
f 36/36/36 38/38/38 39/39/39
f 37/37/37 40/40/40 38/38/38
f 38/38/38 40/40/40 41/41/41
f 38/38/38 41/41/41 39/39/39
f 39/39/39 41/41/41 42/42/42
f 40/40/40 43/43/43 41/41/41
f 41/41/41 43/43/43 44/44/44
f 41/41/41 44/44/44 42/42/42
f 42/42/42 44/44/44 45/45/45
f 43/43/43 46/46/46 44/44/44
f 44/44/44 46/46/46 47/47/47
f 44/44/44 47/47/47 45/45/45
f 45/45/45 47/47/47 48/48/48
