o arc-effect-2026-07-20T17-02-23
g arc-effect-2026-07-20T17-02-23
v -1.545139193534851 -1.0218490362167358 5.000000058430487e-8
v -1.545322299003601 -1.0219422578811646 0.00025002501206472516
v -1.545505404472351 -1.0220355987548828 3.0616171056135255e-20
v -1.5968267917633057 -0.44478750228881836 0.0033493649680167437
v -1.6582742929458618 -0.4528772234916687 0.06637944281101227
v -1.7197219133377075 -0.46096694469451904 7.924047815484408e-18
v -1.4313852787017822 0.06968905031681061 0.012500000186264515
v -1.564021110534668 0.09788166731595993 0.13124999403953552
v -1.6966569423675537 0.12607429921627045 1.5308085657314598e-17
v -1.1190823316574097 0.4512132406234741 0.02500000037252903
v -1.299019455909729 0.561478853225708 0.18927669525146484
v -1.4789565801620483 0.6717445254325867 2.1648901508566386e-17
v -0.7434884309768677 0.6835704445838928 0.03750000149011612
v -0.9175415635108948 0.8985082507133484 0.2352563440799713
v -1.0915948152542114 1.1134459972381592 2.6514381180325745e-17
v -0.3645881116390228 0.7950037717819214 0.046650636941194534
v -0.47179827094078064 1.0977559089660645 0.2648067772388458
v -0.5790084600448608 1.400508165359497 2.957294766968957e-17
v 0 0.8260249495506287 0.05000000074505806
v 0 1.1630125045776367 0.2750000059604645
v 0 1.5 3.0616171314629196e-17
v 0.3645881116390228 0.7950037717819214 0.046650636941194534
v 0.47179827094078064 1.0977559089660645 0.2648067772388458
v 0.5790084600448608 1.400508165359497 2.957294766968957e-17
v 0.7434884309768677 0.6835704445838928 0.03750000149011612
v 0.9175415635108948 0.8985082507133484 0.2352563440799713
v 1.0915948152542114 1.1134459972381592 2.6514381180325745e-17
v 1.1190823316574097 0.4512132406234741 0.02500000037252903
v 1.299019455909729 0.561478853225708 0.18927669525146484
v 1.4789565801620483 0.6717445254325867 2.1648901508566386e-17
v 1.4313852787017822 0.06968905031681061 0.012500000186264515
v 1.564021110534668 0.09788166731595993 0.13124999403953552
v 1.6966569423675537 0.12607429921627045 1.5308085657314598e-17
v 1.5968267917633057 -0.44478750228881836 0.0033493649680167437
v 1.6582742929458618 -0.4528772234916687 0.06637944281101227
v 1.7197219133377075 -0.46096694469451904 7.924047815484408e-18
v 1.545139193534851 -1.0218490362167358 5.000000058430487e-8
v 1.545322299003601 -1.0219422578811646 0.00025002501206472516
v 1.545505404472351 -1.0220355987548828 3.0616171056135255e-20
v -1.545322299003601 -1.0219422578811646 -0.00025002501206472516
v -1.5968267917633057 -0.44478750228881836 -0.0033493649680167437
v -1.6582742929458618 -0.4528772234916687 -0.06637944281101227
v -1.4313852787017822 0.06968905031681061 -0.012500000186264515
v -1.564021110534668 0.09788166731595993 -0.13124999403953552
v -1.1190823316574097 0.4512132406234741 -0.02500000037252903
v -1.299019455909729 0.561478853225708 -0.18927669525146484
v -0.7434884309768677 0.6835704445838928 -0.03750000149011612
v -0.9175415635108948 0.8985082507133484 -0.2352563440799713
v -0.3645881116390228 0.7950037717819214 -0.046650636941194534
v -0.47179827094078064 1.0977559089660645 -0.2648067772388458
v 0 0.8260249495506287 -0.05000000074505806
v 0 1.1630125045776367 -0.2750000059604645
v 0.3645881116390228 0.7950037717819214 -0.046650636941194534
v 0.47179827094078064 1.0977559089660645 -0.2648067772388458
v 0.7434884309768677 0.6835704445838928 -0.03750000149011612
v 0.9175415635108948 0.8985082507133484 -0.2352563440799713
v 1.1190823316574097 0.4512132406234741 -0.02500000037252903
v 1.299019455909729 0.561478853225708 -0.18927669525146484
v 1.4313852787017822 0.06968905031681061 -0.012500000186264515
v 1.564021110534668 0.09788166731595993 -0.13124999403953552
v 1.5968267917633057 -0.44478750228881836 -0.0033493649680167437
v 1.6582742929458618 -0.4528772234916687 -0.06637944281101227
v 1.545322299003601 -1.0219422578811646 -0.00025002501206472516
vt 1 0
vt 0.5 0
vt 0 0
vt 1 0.08333331346511841
vt 0.5 0.08333331346511841
vt 0 0.08333331346511841
vt 1 0.1666666865348816
vt 0.5 0.1666666865348816
vt 0 0.1666666865348816
vt 1 0.25
vt 0.5 0.25
vt 0 0.25
vt 1 0.3333333730697632
vt 0.5 0.3333333730697632
vt 0 0.3333333730697632
vt 1 0.4166666269302368
vt 0.5 0.4166666269302368
vt 0 0.4166666269302368
vt 1 0.5
vt 0.5 0.5
vt 0 0.5
vt 1 0.5833333134651184
vt 0.5 0.5833333134651184
vt 0 0.5833333134651184
vt 1 0.6666666865348816
vt 0.5 0.6666666865348816
vt 0 0.6666666865348816
vt 1 0.75
vt 0.5 0.75
vt 0 0.75
vt 1 0.8333333134651184
vt 0.5 0.8333333134651184
vt 0 0.8333333134651184
vt 1 0.9166666865348816
vt 0.5 0.9166666865348816
vt 0 0.9166666865348816
vt 1 1
vt 0.5 1
vt 0 1
vt 1 0
vt 0.5 0
vt 0 0
vt 1 0.08333331346511841
vt 0.5 0.08333331346511841
vt 0 0.08333331346511841
vt 1 0.1666666865348816
vt 0.5 0.1666666865348816
vt 0 0.1666666865348816
vt 1 0.25
vt 0.5 0.25
vt 0 0.25
vt 1 0.3333333730697632
vt 0.5 0.3333333730697632
vt 0 0.3333333730697632
vt 1 0.4166666269302368
vt 0.5 0.4166666269302368
vt 0 0.4166666269302368
vt 1 0.5
vt 0.5 0.5
vt 0 0.5
vt 1 0.5833333134651184
vt 0.5 0.5833333134651184
vt 0 0.5833333134651184
vt 1 0.6666666865348816
vt 0.5 0.6666666865348816
vt 0 0.6666666865348816
vt 1 0.75
vt 0.5 0.75
vt 0 0.75
vt 1 0.8333333134651184
vt 0.5 0.8333333134651184
vt 0 0.8333333134651184
vt 1 0.9166666865348816
vt 0.5 0.9166666865348816
vt 0 0.9166666865348816
vt 1 1
vt 0.5 1
vt 0 1
vn 0.7927234719587266 0.06748820054299821 0.6058340034969728
vn 0.7088402480464141 0.05894426232115752 0.7029018969165702
vn -0.7029095864467324 -0.21822331772273604 0.6769761420340938
vn 0.7190353096832672 -0.08249345218134353 0.6900601812710918
vn 0.26585167151673966 -0.16683211612180943 0.9494682373739918
vn -0.7135202445344615 -0.02974503180151266 0.7000029240814708
vn 0.6179901830490413 -0.30468445390064275 0.7247451394844118
vn 0.006243737872876222 -0.18389655628266444 0.9829257715233392
vn -0.6565815088472786 0.19284663736500962 0.7291850908355432
vn 0.451376436796629 -0.46675899485819444 0.7605230785608986
vn -0.11174090335209921 -0.10835246866459271 0.9878125900454728
vn -0.538315016634899 0.3827214372449322 0.7508270402286681
vn 0.27682390677713 -0.5455038521633051 0.7910714707987148
vn -0.1434084748541637 -0.006997122775325796 0.9896388480717951
vn -0.37423255525665033 0.5241975116264347 0.764962066635158
vn 0.13258922248736565 -0.5643105570171895 0.8148458095364701
vn -0.10855209100388243 0.08061074478897257 0.9908170120477605
vn -0.18000346336506648 0.609220501860611 0.772301193375542
vn 0.023327878348888196 -0.5608746554601911 0.8275720095279634
vn -0.03400677060859633 0.12777504290488279 0.9912199947354925
vn 0.029162838540091753 0.6333292014819663 0.7733328205879404
vn -0.0797235350880401 -0.5578716861764064 0.8260891838753
vn 0.047660528923028404 0.12760478073269643 0.9906793093211029
vn 0.2378849658638755 0.5944258504319686 0.7681592617121619
vn -0.21010897918049815 -0.5440590346510832 0.8123139686612934
vn 0.11192355398784372 0.09328439164877966 0.9893286311117491
vn 0.42977523823740627 0.49298185133067596 0.7564800981232487
vn -0.37419069188360987 -0.48556042204187927 0.7900711377174698
vn 0.15466642734877425 0.04722648222398775 0.9868373501382655
vn 0.5870814208040355 0.3333853119653325 0.7376921031924449
vn -0.5450955066541826 -0.35267055249693335 0.7605881737359106
vn 0.2004396810051048 0.004667947636072361 0.9796949242205141
vn 0.6912192786436931 0.1267558053664954 0.7114414063274528
vn -0.6756543387670709 -0.1414542171081319 0.7235205034880198
vn 0.34039152481018625 -0.05687496201846539 0.9385621175675026
vn 0.7247202249082098 -0.09562415435254265 0.6823757152136608
vn -0.7112333707308026 0.059708233358081994 0.7004156046435269
vn 0.7005117998675344 -0.21804245892558943 0.6795150508649754
vn 0.7420700085341704 -0.23041894699344206 0.6294753460625202
vn 0.7927234719587266 0.06748820054299821 -0.6058340034969728
vn 0.7088402480464141 0.05894426232115752 -0.7029018969165702
vn -0.7029095864467324 -0.21822331772273604 -0.6769761420340938
vn 0.7190353096832672 -0.08249345218134353 -0.6900601812710918
vn 0.26585167151673966 -0.16683211612180943 -0.9494682373739918
vn -0.7135202445344615 -0.02974503180151266 -0.7000029240814708
vn 0.6179901830490413 -0.30468445390064275 -0.7247451394844118
vn 0.006243737872876222 -0.18389655628266444 -0.9829257715233392
vn -0.6565815088472786 0.19284663736500962 -0.7291850908355432
vn 0.451376436796629 -0.46675899485819444 -0.7605230785608986
vn -0.11174090335209921 -0.10835246866459271 -0.9878125900454728
vn -0.538315016634899 0.3827214372449322 -0.7508270402286681
vn 0.27682390677713 -0.5455038521633051 -0.7910714707987148
vn -0.1434084748541637 -0.006997122775325796 -0.9896388480717951
vn -0.37423255525665033 0.5241975116264347 -0.764962066635158
vn 0.13258922248736565 -0.5643105570171895 -0.8148458095364701
vn -0.10855209100388243 0.08061074478897257 -0.9908170120477605
vn -0.18000346336506648 0.609220501860611 -0.772301193375542
vn 0.023327878348888196 -0.5608746554601911 -0.8275720095279634
vn -0.03400677060859633 0.12777504290488279 -0.9912199947354925
vn 0.029162838540091753 0.6333292014819663 -0.7733328205879404
vn -0.0797235350880401 -0.5578716861764064 -0.8260891838753
vn 0.047660528923028404 0.12760478073269643 -0.9906793093211029
vn 0.2378849658638755 0.5944258504319686 -0.7681592617121619
vn -0.21010897918049815 -0.5440590346510832 -0.8123139686612934
vn 0.11192355398784372 0.09328439164877966 -0.9893286311117491
vn 0.42977523823740627 0.49298185133067596 -0.7564800981232487
vn -0.37419069188360987 -0.48556042204187927 -0.7900711377174698
vn 0.15466642734877425 0.04722648222398775 -0.9868373501382655
vn 0.5870814208040355 0.3333853119653325 -0.7376921031924449
vn -0.5450955066541826 -0.35267055249693335 -0.7605881737359106
vn 0.2004396810051048 0.004667947636072361 -0.9796949242205141
vn 0.6912192786436931 0.1267558053664954 -0.7114414063274528
vn -0.6756543387670709 -0.1414542171081319 -0.7235205034880198
vn 0.34039152481018625 -0.05687496201846539 -0.9385621175675026
vn 0.7247202249082098 -0.09562415435254265 -0.6823757152136608
vn -0.7112333707308026 0.059708233358081994 -0.7004156046435269
vn 0.7005117998675344 -0.21804245892558943 -0.6795150508649754
vn 0.7420700085341704 -0.23041894699344206 -0.6294753460625202
f 1/1/1 4/4/4 2/2/2
f 1/40/40 40/41/41 41/43/43
f 2/2/2 4/4/4 5/5/5
f 40/41/41 42/44/44 41/43/43
f 2/2/2 5/5/5 3/3/3
f 40/41/41 3/42/42 42/44/44
f 3/3/3 5/5/5 6/6/6
f 3/42/42 6/45/45 42/44/44
f 4/4/4 7/7/7 5/5/5
f 41/43/43 42/44/44 43/46/46
f 5/5/5 7/7/7 8/8/8
f 42/44/44 44/47/47 43/46/46
f 5/5/5 8/8/8 6/6/6
f 42/44/44 6/45/45 44/47/47
f 6/6/6 8/8/8 9/9/9
f 6/45/45 9/48/48 44/47/47
f 7/7/7 10/10/10 8/8/8
f 43/46/46 44/47/47 45/49/49
f 8/8/8 10/10/10 11/11/11
f 44/47/47 46/50/50 45/49/49
f 8/8/8 11/11/11 9/9/9
f 44/47/47 9/48/48 46/50/50
f 9/9/9 11/11/11 12/12/12
f 9/48/48 12/51/51 46/50/50
f 10/10/10 13/13/13 11/11/11
f 45/49/49 46/50/50 47/52/52
f 11/11/11 13/13/13 14/14/14
f 46/50/50 48/53/53 47/52/52
f 11/11/11 14/14/14 12/12/12
f 46/50/50 12/51/51 48/53/53
f 12/12/12 14/14/14 15/15/15
f 12/51/51 15/54/54 48/53/53
f 13/13/13 16/16/16 14/14/14
f 47/52/52 48/53/53 49/55/55
f 14/14/14 16/16/16 17/17/17
f 48/53/53 50/56/56 49/55/55
f 14/14/14 17/17/17 15/15/15
f 48/53/53 15/54/54 50/56/56
f 15/15/15 17/17/17 18/18/18
f 15/54/54 18/57/57 50/56/56
f 16/16/16 19/19/19 17/17/17
f 49/55/55 50/56/56 51/58/58
f 17/17/17 19/19/19 20/20/20
f 50/56/56 52/59/59 51/58/58
f 17/17/17 20/20/20 18/18/18
f 50/56/56 18/57/57 52/59/59
f 18/18/18 20/20/20 21/21/21
f 18/57/57 21/60/60 52/59/59
f 19/19/19 22/22/22 20/20/20
f 51/58/58 52/59/59 53/61/61
f 20/20/20 22/22/22 23/23/23
f 52/59/59 54/62/62 53/61/61
f 20/20/20 23/23/23 21/21/21
f 52/59/59 21/60/60 54/62/62
f 21/21/21 23/23/23 24/24/24
f 21/60/60 24/63/63 54/62/62
f 22/22/22 25/25/25 23/23/23
f 53/61/61 54/62/62 55/64/64
f 23/23/23 25/25/25 26/26/26
f 54/62/62 56/65/65 55/64/64
f 23/23/23 26/26/26 24/24/24
f 54/62/62 24/63/63 56/65/65
f 24/24/24 26/26/26 27/27/27
f 24/63/63 27/66/66 56/65/65
f 25/25/25 28/28/28 26/26/26
f 55/64/64 56/65/65 57/67/67
f 26/26/26 28/28/28 29/29/29
f 56/65/65 58/68/68 57/67/67
f 26/26/26 29/29/29 27/27/27
f 56/65/65 27/66/66 58/68/68
f 27/27/27 29/29/29 30/30/30
f 27/66/66 30/69/69 58/68/68
f 28/28/28 31/31/31 29/29/29
f 57/67/67 58/68/68 59/70/70
f 29/29/29 31/31/31 32/32/32
f 58/68/68 60/71/71 59/70/70
f 29/29/29 32/32/32 30/30/30
f 58/68/68 30/69/69 60/71/71
f 30/30/30 32/32/32 33/33/33
f 30/69/69 33/72/72 60/71/71
f 31/31/31 34/34/34 32/32/32
f 59/70/70 60/71/71 61/73/73
f 32/32/32 34/34/34 35/35/35
f 60/71/71 62/74/74 61/73/73
f 32/32/32 35/35/35 33/33/33
f 60/71/71 33/72/72 62/74/74
f 33/33/33 35/35/35 36/36/36
f 33/72/72 36/75/75 62/74/74
f 34/34/34 37/37/37 35/35/35
f 61/73/73 62/74/74 37/76/76
f 35/35/35 37/37/37 38/38/38
f 62/74/74 63/77/77 37/76/76
f 35/35/35 38/38/38 36/36/36
f 62/74/74 36/75/75 63/77/77
f 36/36/36 38/38/38 39/39/39
f 36/75/75 39/78/78 63/77/77
