o cylinderSpiralRibbon-effect-2026-07-19T04-23-26
g cylinderSpiralRibbon-effect-2026-07-19T04-23-26
v 0.800000011920929 -2.3152315616607666 -0.07655461132526398
v 0.8876828551292419 -2.4922332763671875 0.018745440989732742
v 0.800000011920929 -2.6847684383392334 0.07655461132526398
v 0.7416245937347412 -2.1589815616607666 0.3096022605895996
v 0.7849099040031433 -2.34375 0.4195430874824524
v 0.6694493889808655 -2.5285184383392334 0.44463253021240234
v 0.5081090331077576 -2.0027315616607666 0.6226442456245422
v 0.49445751309394836 -2.1875 0.7400079369544983
v 0.38080334663391113 -2.3722684383392334 0.7077071666717529
v 0.15459969639778137 -1.8464815616607666 0.7886441349983215
v 0.08723525702953339 -2.03125 0.8857144117355347
v 0.0022277324460446835 -2.2160184383392334 0.8036514520645142
v -0.23541951179504395 -1.6902315616607666 0.7683998346328735
v -0.340588241815567 -1.875 0.8222528100013733
v -0.3768739700317383 -2.0597684383392334 0.7098074555397034
v -0.5698426365852356 -1.5339815616607666 0.5666921138763428
v -0.6879792809486389 -1.71875 0.5646100044250488
v -0.6669740676879883 -1.9035184383392334 0.4483371078968048
v -0.76969313621521 -1.3777315616607666 0.2311558872461319
v -0.8728988766670227 -1.5625 0.17363038659095764
v -0.7995632886886597 -1.7472684383392334 0.08098862320184708
v -0.787774920463562 -1.2214815616607666 -0.15896955132484436
v -0.851676881313324 -1.40625 -0.2583533525466919
v -0.743329644203186 -1.5910184383392334 -0.30548593401908875
v -0.6198177337646484 -1.0652315616607666 -0.511553168296814
v -0.6293250322341919 -1.25 -0.6293250322341919
v -0.511553168296814 -1.4347684383392334 -0.6198177337646484
v -0.30548593401908875 -0.9089815020561218 -0.743329644203186
v -0.2583533525466919 -1.09375 -0.851676881313324
v -0.15896955132484436 -1.2785184383392334 -0.787774920463562
v 0.08098862320184708 -0.7527315020561218 -0.7995632886886597
v 0.17363038659095764 -0.9375 -0.8728988766670227
v 0.2311558872461319 -1.1222684383392334 -0.76969313621521
v 0.4483371078968048 -0.5964815020561218 -0.6669740676879883
v 0.5646100044250488 -0.78125 -0.6879792809486389
v 0.5666921138763428 -0.9660184979438782 -0.5698426365852356
v 0.7098074555397034 -0.4402315318584442 -0.3768739700317383
v 0.8222528100013733 -0.625 -0.340588241815567
v 0.7683998346328735 -0.8097684979438782 -0.23541951179504395
v 0.8036514520645142 -0.2839815318584442 0.0022277324460446835
v 0.8857144117355347 -0.46875 0.08723525702953339
v 0.7886441349983215 -0.6535184979438782 0.15459969639778137
v 0.7077071666717529 -0.12773151695728302 0.38080334663391113
v 0.7400079369544983 -0.3125 0.49445751309394836
v 0.6226442456245422 -0.4972684681415558 0.5081090331077576
v 0.44463253021240234 0.02851848118007183 0.6694493889808655
v 0.4195430874824524 -0.15625 0.7849099040031433
v 0.3096022605895996 -0.3410184681415558 0.7416245937347412
v 0.07655461132526398 0.18476848304271698 0.800000011920929
v 2.828870874054261e-16 -4.310322780318376e-18 0.8899999856948853
v -0.07655461132526398 -0.18476848304271698 0.800000011920929
v -0.3096022605895996 0.3410184681415558 0.7416245937347412
v -0.4195430874824524 0.15625 0.7849099040031433
v -0.44463253021240234 -0.02851848118007183 0.6694493889808655
v -0.6226442456245422 0.4972684681415558 0.5081090331077576
v -0.7400079369544983 0.3125 0.49445751309394836
v -0.7077071666717529 0.12773151695728302 0.38080334663391113
v -0.7886441349983215 0.6535184979438782 0.15459969639778137
v -0.8857144117355347 0.46875 0.08723525702953339
v -0.8036514520645142 0.2839815318584442 0.0022277324460446835
v -0.7683998346328735 0.8097684979438782 -0.23541951179504395
v -0.8222528100013733 0.625 -0.340588241815567
v -0.7098074555397034 0.4402315318584442 -0.3768739700317383
v -0.5666921138763428 0.9660184979438782 -0.5698426365852356
v -0.5646100044250488 0.78125 -0.6879792809486389
v -0.4483371078968048 0.5964815020561218 -0.6669740676879883
v -0.2311558872461319 1.1222684383392334 -0.76969313621521
v -0.17363038659095764 0.9375 -0.8728988766670227
v -0.08098862320184708 0.7527315020561218 -0.7995632886886597
v 0.15896955132484436 1.2785184383392334 -0.787774920463562
v 0.2583533525466919 1.09375 -0.851676881313324
v 0.30548593401908875 0.9089815020561218 -0.743329644203186
v 0.511553168296814 1.4347684383392334 -0.6198177337646484
v 0.6293250322341919 1.25 -0.6293250322341919
v 0.6198177337646484 1.0652315616607666 -0.511553168296814
v 0.743329644203186 1.5910184383392334 -0.30548593401908875
v 0.851676881313324 1.40625 -0.2583533525466919
v 0.787774920463562 1.2214815616607666 -0.15896955132484436
v 0.7995632886886597 1.7472684383392334 0.08098862320184708
v 0.8728988766670227 1.5625 0.17363038659095764
v 0.76969313621521 1.3777315616607666 0.2311558872461319
v 0.6669740676879883 1.9035184383392334 0.4483371078968048
v 0.6879792809486389 1.71875 0.5646100044250488
v 0.5698426365852356 1.5339815616607666 0.5666921138763428
v 0.3768739700317383 2.0597684383392334 0.7098074555397034
v 0.340588241815567 1.875 0.8222528100013733
v 0.23541951179504395 1.6902315616607666 0.7683998346328735
v -0.0022277324460446835 2.2160184383392334 0.8036514520645142
v -0.08723525702953339 2.03125 0.8857144117355347
v -0.15459969639778137 1.8464815616607666 0.7886441349983215
v -0.38080334663391113 2.3722684383392334 0.7077071666717529
v -0.49445751309394836 2.1875 0.7400079369544983
v -0.5081090331077576 2.0027315616607666 0.6226442456245422
v -0.6694493889808655 2.5285184383392334 0.44463253021240234
v -0.7849099040031433 2.34375 0.4195430874824524
v -0.7416245937347412 2.1589815616607666 0.3096022605895996
v -0.800000011920929 2.6847684383392334 0.07655461132526398
v -0.8876828551292419 2.4922332763671875 0.018745440989732742
v -0.800000011920929 2.3152315616607666 -0.07655461132526398
vt 1 0
vt 0.5 0
vt 0 0
vt 1 0.03125
vt 0.5 0.03125
vt 0 0.03125
vt 1 0.0625
vt 0.5 0.0625
vt 0 0.0625
vt 1 0.09375
vt 0.5 0.09375
vt 0 0.09375
vt 1 0.125
vt 0.5 0.125
vt 0 0.125
vt 1 0.15625
vt 0.5 0.15625
vt 0 0.15625
vt 1 0.1875
vt 0.5 0.1875
vt 0 0.1875
vt 1 0.21875
vt 0.5 0.21875
vt 0 0.21875
vt 1 0.25
vt 0.5 0.25
vt 0 0.25
vt 1 0.28125
vt 0.5 0.28125
vt 0 0.28125
vt 1 0.3125
vt 0.5 0.3125
vt 0 0.3125
vt 1 0.34375
vt 0.5 0.34375
vt 0 0.34375
vt 1 0.375
vt 0.5 0.375
vt 0 0.375
vt 1 0.40625
vt 0.5 0.40625
vt 0 0.40625
vt 1 0.4375
vt 0.5 0.4375
vt 0 0.4375
vt 1 0.46875
vt 0.5 0.46875
vt 0 0.46875
vt 1 0.5
vt 0.5 0.5
vt 0 0.5
vt 1 0.53125
vt 0.5 0.53125
vt 0 0.53125
vt 1 0.5625
vt 0.5 0.5625
vt 0 0.5625
vt 1 0.59375
vt 0.5 0.59375
vt 0 0.59375
vt 1 0.625
vt 0.5 0.625
vt 0 0.625
vt 1 0.65625
vt 0.5 0.65625
vt 0 0.65625
vt 1 0.6875
vt 0.5 0.6875
vt 0 0.6875
vt 1 0.71875
vt 0.5 0.71875
vt 0 0.71875
vt 1 0.75
vt 0.5 0.75
vt 0 0.75
vt 1 0.78125
vt 0.5 0.78125
vt 0 0.78125
vt 1 0.8125
vt 0.5 0.8125
vt 0 0.8125
vt 1 0.84375
vt 0.5 0.84375
vt 0 0.84375
vt 1 0.875
vt 0.5 0.875
vt 0 0.875
vt 1 0.90625
vt 0.5 0.90625
vt 0 0.90625
vt 1 0.9375
vt 0.5 0.9375
vt 0 0.9375
vt 1 0.96875
vt 0.5 0.96875
vt 0 0.96875
vt 1 1
vt 0.5 1
vt 0 1
vn 0.9031655901227261 0.4277342909354459 -0.03654166356666258
vn 0.9765144427184005 0.14633606135425406 0.15813064317106756
vn 0.8408526180628713 -0.3648844062611146 0.3997827469567552
vn 0.9054269722150332 0.39071178140690593 0.16597078615033398
vn 0.8791188771262302 -0.0010507257164238174 0.4766014014412725
vn 0.6403307227681424 -0.3877344970433232 0.663052430266106
vn 0.7226230912585542 0.3877344031888856 0.5722568484200865
vn 0.5555702489494084 -4.161990250297733e-8 0.8314696016585876
vn 0.2521605499033021 -0.3877344738886841 0.8866098549140595
vn 0.367536672745715 0.38773442236370903 0.8453276358319833
vn 0.09801718618188535 -8.532897966018479e-9 0.995184722156136
vn -0.1955592902615464 -0.3877345566662279 0.9007876983836113
vn -0.07434631092931449 0.38773447034694236 0.9187679829837224
vn -0.38268348793708296 -1.734126274734532e-8 0.9238795094926114
vn -0.5970963257090005 -0.38773453348747255 0.7022377869112877
vn -0.4986718432275653 0.387734542874045 0.7752343626505973
vn -0.7730104496547076 -9.041912306015465e-9 0.6343932886818924
vn -0.857624539695303 -0.38773447677671896 0.33784926288376516
vn -0.8052322232212904 0.38773450080732075 0.4486234763917239
vn -0.9807852732492798 -2.9674363650199546e-9 0.19509035798146274
vn -0.9156183620255088 -0.3877344735913264 -0.10632494115014195
vn -0.9216310895521329 0.3877344394820807 0.01606671125230654
vn -0.95694034101805 -3.703860283497315e-8 -0.2902846598293759
vn -0.7573820928791889 -0.38773444193519857 -0.5253897295562027
vn -0.8203798526790053 0.38773435327312333 -0.42028439015771984
vn -0.7071067811865476 1.9825177394859206e-9 -0.7071067811865476
vn -0.42028438530117207 -0.3877343785950258 -0.8203798431992005
vn -0.5253897416983653 0.38773439129139514 -0.7573821103828743
vn -0.29028468712039934 4.6580850194090834e-8 -0.9569403327394084
vn 0.016066716838799476 -0.38773443944727 -0.9216310894693891
vn -0.10632489606383862 0.3877343529860105 -0.9156184183334966
vn 0.19509037231548232 5.818437404602637e-9 -0.9807852703980655
vn 0.4486234525875066 -0.38773450599133924 -0.8052322339872623
vn 0.33784929318836654 0.38773444755083897 -0.8576245409703286
vn 0.6343932594522134 9.615779051541532e-9 -0.7730104736428844
vn 0.7752343902655336 -0.3877344374673824 -0.4986718822547333
vn 0.7022378583443251 0.38773448041377084 -0.5970962761617585
vn 0.9238795200293245 1.7208311515197637e-8 -0.38268346249921026
vn 0.9187680016725267 -0.3877344186292647 -0.07434634969450803
vn 0.9007877192015168 0.3877345060224303 -0.19555929478107395
vn 0.9951847236096728 7.582571934533277e-9 0.09801717142388504
vn 0.8453276816398344 -0.38773435643075777 0.36753663694473865
vn 0.8866098754043001 0.38773442324488183 0.2521605557309278
vn 0.8314696016585879 3.9561463734779765e-8 0.5555702489494085
vn 0.5722568796808067 -0.3877343945673603 0.7226230711286966
vn 0.663052445589762 0.3877344463995228 0.6403307375666821
vn 0.47139670819537466 3.688392831077734e-8 0.8819212796517405
vn 0.16404336371830783 -0.38773440560535916 0.9070566716197185
vn 0.2829102274613932 0.3877343829140593 0.8772820820602666
vn 2.305880597575083e-9 6.255035933655506e-10 1
vn -0.2829102274613932 -0.3877343829140593 0.8772820820602666
vn -0.16404336371830783 0.38773440560535916 0.9070566716197185
vn -0.4713967561549031 -3.8142421740543836e-8 0.8819212540168387
vn -0.6630524532515896 -0.3877344210776214 0.6403307449659515
vn -0.5722569263788934 0.38773435602015965 0.7226230548308114
vn -0.8314696016585876 -4.1619898950263624e-8 0.5555702489494084
vn -0.886609868741453 -0.38773442033106903 0.25216058363827154
vn -0.8453276816398344 0.38773435643075777 0.36753663694473865
vn -0.9951847228829044 -8.53289619589308e-9 0.0980171788028852
vn -0.9007877087925643 -0.38773453134432956 -0.19555929252131024
vn -0.9187680011635995 0.38773441841448947 -0.07434635710390652
vn -0.9238795200293245 -1.734125939240619e-8 -0.38268346249921026
vn -0.702237833351882 -0.3877344666144123 -0.5970963145159178
vn -0.7752343434401677 0.3877344438589546 -0.49867195007968834
vn -0.6343932594522134 -9.041910113052442e-9 -0.7730104736428844
vn -0.33784932349296737 -0.3877344183249581 -0.8576245422453526
vn -0.448623457771525 0.38773448066943916 -0.8052322432920338
vn -0.19509038664950176 -2.9674359036776286e-9 -0.9807852675468509
vn 0.10632490343019049 -0.3877343526788542 -0.9156184176081599
vn -0.01606671125230654 0.3877344394820807 -0.9216310895521329
vn 0.2902846598293759 -3.7038599282259515e-8 -0.95694034101805
vn 0.5253897416983653 -0.38773439129139514 -0.7573821103828743
vn 0.42028438530117207 0.3877343785950258 -0.8203798431992005
vn 0.7071067811865476 1.9825177394859206e-9 -0.7071067811865476
vn 0.8203798431992005 -0.3877343785950258 -0.42028438530117207
vn 0.7573821016310317 0.3877344166132973 -0.525389735627284
vn 0.9569403327394084 4.658085729951804e-8 -0.29028468712039934
vn 0.9216310894693891 -0.38773443944727 0.016066716838799476
vn 0.9156183839114955 0.38773442325468066 -0.1063249362410417
vn 0.9807852703980655 5.818438736870293e-9 0.19509037231548232
vn 0.8052322139165191 -0.38773452612921977 0.44862347120770524
vn 0.8576245297851185 0.387734502098619 0.3378492589797858
vn 0.7730104496547076 9.615782159124013e-9 0.6343932886818924
vn 0.4986718201851519 -0.3877345249577745 0.775234386433546
vn 0.5970963257090005 0.38773453348747255 0.7022377869112877
vn 0.38268346249921026 1.7208315067911375e-8 0.9238795200293245
vn 0.07434631662051178 -0.38773452077596576 0.9187679612413545
vn 0.19555930685259973 0.38773453021444765 0.9007877061676144
vn -0.09801717142388504 7.5825728227117e-9 0.9951847236096728
vn -0.36753662845068413 -0.38773440707456225 0.8453276621036612
vn -0.2521605499033021 0.3877344738886841 0.8866098549140595
vn -0.5555702489494085 3.956147439292088e-8 0.8314696016585879
vn -0.7226230912585542 -0.3877344031888856 0.5722568484200865
vn -0.6403306696955534 0.38773447119630583 0.6630524966345916
vn -0.8791188521451017 0.0010507337192234283 0.47660144750276445
vn -0.9054269699757695 -0.3907117804406141 0.1659708006410231
vn -0.8408526647054241 0.36488437083394853 0.39978268118929483
vn -0.9765144427184005 -0.14633606135425406 0.15813064317106756
vn -0.9031655901227261 -0.4277342909354459 -0.03654166356666258
f 1/1/1 4/4/4 2/2/2
f 2/2/2 4/4/4 5/5/5
f 2/2/2 5/5/5 3/3/3
f 3/3/3 5/5/5 6/6/6
f 4/4/4 7/7/7 5/5/5
f 5/5/5 7/7/7 8/8/8
f 5/5/5 8/8/8 6/6/6
f 6/6/6 8/8/8 9/9/9
f 7/7/7 10/10/10 8/8/8
f 8/8/8 10/10/10 11/11/11
f 8/8/8 11/11/11 9/9/9
f 9/9/9 11/11/11 12/12/12
f 10/10/10 13/13/13 11/11/11
f 11/11/11 13/13/13 14/14/14
f 11/11/11 14/14/14 12/12/12
f 12/12/12 14/14/14 15/15/15
f 13/13/13 16/16/16 14/14/14
f 14/14/14 16/16/16 17/17/17
f 14/14/14 17/17/17 15/15/15
f 15/15/15 17/17/17 18/18/18
f 16/16/16 19/19/19 17/17/17
f 17/17/17 19/19/19 20/20/20
f 17/17/17 20/20/20 18/18/18
f 18/18/18 20/20/20 21/21/21
f 19/19/19 22/22/22 20/20/20
f 20/20/20 22/22/22 23/23/23
f 20/20/20 23/23/23 21/21/21
f 21/21/21 23/23/23 24/24/24
f 22/22/22 25/25/25 23/23/23
f 23/23/23 25/25/25 26/26/26
f 23/23/23 26/26/26 24/24/24
f 24/24/24 26/26/26 27/27/27
f 25/25/25 28/28/28 26/26/26
f 26/26/26 28/28/28 29/29/29
f 26/26/26 29/29/29 27/27/27
f 27/27/27 29/29/29 30/30/30
f 28/28/28 31/31/31 29/29/29
f 29/29/29 31/31/31 32/32/32
f 29/29/29 32/32/32 30/30/30
f 30/30/30 32/32/32 33/33/33
f 31/31/31 34/34/34 32/32/32
f 32/32/32 34/34/34 35/35/35
f 32/32/32 35/35/35 33/33/33
f 33/33/33 35/35/35 36/36/36
f 34/34/34 37/37/37 35/35/35
f 35/35/35 37/37/37 38/38/38
f 35/35/35 38/38/38 36/36/36
f 36/36/36 38/38/38 39/39/39
f 37/37/37 40/40/40 38/38/38
f 38/38/38 40/40/40 41/41/41
f 38/38/38 41/41/41 39/39/39
f 39/39/39 41/41/41 42/42/42
f 40/40/40 43/43/43 41/41/41
f 41/41/41 43/43/43 44/44/44
f 41/41/41 44/44/44 42/42/42
f 42/42/42 44/44/44 45/45/45
f 43/43/43 46/46/46 44/44/44
f 44/44/44 46/46/46 47/47/47
f 44/44/44 47/47/47 45/45/45
f 45/45/45 47/47/47 48/48/48
f 46/46/46 49/49/49 47/47/47
f 47/47/47 49/49/49 50/50/50
f 47/47/47 50/50/50 48/48/48
f 48/48/48 50/50/50 51/51/51
f 49/49/49 52/52/52 50/50/50
f 50/50/50 52/52/52 53/53/53
f 50/50/50 53/53/53 51/51/51
f 51/51/51 53/53/53 54/54/54
f 52/52/52 55/55/55 53/53/53
f 53/53/53 55/55/55 56/56/56
f 53/53/53 56/56/56 54/54/54
f 54/54/54 56/56/56 57/57/57
f 55/55/55 58/58/58 56/56/56
f 56/56/56 58/58/58 59/59/59
f 56/56/56 59/59/59 57/57/57
f 57/57/57 59/59/59 60/60/60
f 58/58/58 61/61/61 59/59/59
f 59/59/59 61/61/61 62/62/62
f 59/59/59 62/62/62 60/60/60
f 60/60/60 62/62/62 63/63/63
f 61/61/61 64/64/64 62/62/62
f 62/62/62 64/64/64 65/65/65
f 62/62/62 65/65/65 63/63/63
f 63/63/63 65/65/65 66/66/66
f 64/64/64 67/67/67 65/65/65
f 65/65/65 67/67/67 68/68/68
f 65/65/65 68/68/68 66/66/66
f 66/66/66 68/68/68 69/69/69
f 67/67/67 70/70/70 68/68/68
f 68/68/68 70/70/70 71/71/71
f 68/68/68 71/71/71 69/69/69
f 69/69/69 71/71/71 72/72/72
f 70/70/70 73/73/73 71/71/71
f 71/71/71 73/73/73 74/74/74
f 71/71/71 74/74/74 72/72/72
f 72/72/72 74/74/74 75/75/75
f 73/73/73 76/76/76 74/74/74
f 74/74/74 76/76/76 77/77/77
f 74/74/74 77/77/77 75/75/75
f 75/75/75 77/77/77 78/78/78
f 76/76/76 79/79/79 77/77/77
f 77/77/77 79/79/79 80/80/80
f 77/77/77 80/80/80 78/78/78
f 78/78/78 80/80/80 81/81/81
f 79/79/79 82/82/82 80/80/80
f 80/80/80 82/82/82 83/83/83
f 80/80/80 83/83/83 81/81/81
f 81/81/81 83/83/83 84/84/84
f 82/82/82 85/85/85 83/83/83
f 83/83/83 85/85/85 86/86/86
f 83/83/83 86/86/86 84/84/84
f 84/84/84 86/86/86 87/87/87
f 85/85/85 88/88/88 86/86/86
f 86/86/86 88/88/88 89/89/89
f 86/86/86 89/89/89 87/87/87
f 87/87/87 89/89/89 90/90/90
f 88/88/88 91/91/91 89/89/89
f 89/89/89 91/91/91 92/92/92
f 89/89/89 92/92/92 90/90/90
f 90/90/90 92/92/92 93/93/93
f 91/91/91 94/94/94 92/92/92
f 92/92/92 94/94/94 95/95/95
f 92/92/92 95/95/95 93/93/93
f 93/93/93 95/95/95 96/96/96
f 94/94/94 97/97/97 95/95/95
f 95/95/95 97/97/97 98/98/98
f 95/95/95 98/98/98 96/96/96
f 96/96/96 98/98/98 99/99/99
